<svg xmlns="http://www.w3.org/2000/svg" xmlns:xlink="http://www.w3.org/1999/xlink" version="1.1" width="3176.4705882352937" height="2131.9808470547405" viewBox="0 0 3176.4705882352937 2131.9808470547405">
	
	<g transform="scale(8.823529411764707) translate(10, 10)">
		<defs id="SvgjsDefs2038"/>
		
		<g id="SvgjsG2039" featureKey="JQyOZB-0" transform="matrix(0.3356961250701188,0,0,0.3356961250701188,84.55319417403673,-11.026445466454064)" fill="#fff">
			<title xmlns="http://www.w3.org/2000/svg">Cloud technology</title>
			<g xmlns="http://www.w3.org/2000/svg">
				<path d="M396.1,124.7c-1.8-32.2-29.3-56.9-61.6-55.1c-5.6,0.3-11.1,1.4-16.3,3.3c-39.1-47.1-109-53.6-156.1-14.5   c-24.5,20.4-39.1,50.3-40,82.2c-38.5,10.1-65.7,44.2-67.1,83.9c-0.8,24.2,8.2,47.7,25.2,65c16.5,17,39,27,62.7,27.9   c-3,4.9-4.7,10.5-4.7,16.3V368c-3.7,1.3-7.1,3.4-9.8,6.1c-10,10-10,26.2,0,36.2c10,10,26.2,10,36.2,0s10-26.2,0-36.2   c-3.9-3.9-8.9-6.4-14.4-7.2v-33.3c0-8,5-15.1,12.5-17.9l35-13c12.2-4.6,20.3-16.2,20.3-29.2v-32.7c0-3.3-2.7-6-6-6   c-3.3,0-6,2.7-6,6v32.7c0,8-5,15.1-12.5,17.9l-35,13c-0.8,0.3-1.5,0.6-2.3,1h-10.1c-21.6,0.1-42.3-8.7-57.3-24.3   c-14.6-15-22.5-35.3-21.8-56.2c1.2-36,27-66.5,62.3-73.7c2.9-0.6,4.9-3.2,4.8-6.1c0-0.5,0-1,0-1.5c0-54.6,44.2-98.8,98.8-98.8   c30.8,0,59.9,14.4,78.6,38.9c1.7,2.2,4.7,3,7.2,1.8c23.4-10.5,50.9,0,61.4,23.4c2.7,6,4.1,12.4,4.1,19c0,0.2,0,0.5,0,0.7   c-0.1,2.6,1.5,4.9,3.9,5.8c34.5,13.2,57.2,46.4,57,83.3c-0.3,43-32.9,79.9-75.9,86.6l-34.7-12.9c-7.5-2.8-12.5-9.9-12.5-17.9v-32.7   c0-3.3-2.7-6-6-6s-6,2.7-6,6v32.7c0,13,8.1,24.6,20.3,29.2l35,13c7.5,2.8,12.5,9.9,12.5,17.9v33.3c-14,2.1-23.6,15.1-21.5,29.1   c2.1,14,15.1,23.6,29.1,21.5c14-2.1,23.6-15.1,21.5-29.1c-0.8-5.4-3.3-10.5-7.2-14.3c-2.8-2.8-6.1-4.9-9.8-6.1v-34.4   c0-7.3-2.6-14.3-7.2-19.9c18.8-5.2,35.7-15.6,48.7-30.1c16.3-18,25.5-41.5,25.7-65.8C457.2,177.4,433.2,140.7,396.1,124.7z    M147.9,378.7c7.5,0.8,12.9,7.4,12.1,14.9c-0.3,3.1-1.7,6-3.9,8.2h0c-5.3,5.3-13.9,5.3-19.2,0c-5.3-5.3-5.3-13.9,0-19.2   c1.4-1.4,3.1-2.5,5-3.2C143.8,380.3,146.1,380,147.9,378.7z M386.2,379.4c7,2.5,10.7,10.3,8.2,17.4c-0.7,1.9-1.8,3.6-3.2,5h0   c-5.3,5.3-13.9,5.3-19.2,0c-5.3-5.3-5.3-13.9,0-19.2c2.2-2.2,5.1-3.6,8.2-3.9C381.9,380,384.2,380.3,386.2,379.4z"/>
				<path d="M270,334.7V130.8c0-3.3-2.7-6-6-6s-6,2.7-6,6v203.9c-13.7,3.3-22.2,17.2-18.8,30.9c2.8,11.5,13,19.6,24.8,19.6v0   c14.1,0,25.6-11.5,25.6-25.6C289.6,347.8,281.5,337.5,270,334.7z M273.6,369.2c-5.3,5.3-13.9,5.3-19.2,0c-5.3-5.3-5.3-13.9,0-19.2   c0,0,0,0,0,0h0c2.5-2.5,5.8-3.9,9.3-4c0.1,0,0.2,0,0.3,0c0.1,0,0.2,0,0.3,0c3.5,0.1,6.8,1.5,9.3,4   C278.9,355.3,278.9,363.9,273.6,369.2z"/>
				<path d="M335.1,428.8v-86.4c0-14.3-11.6-25.9-26-26c-7.7,0-13.9-6.3-14-14V180.8c0-3.3-2.7-6-6-6s-6,2.7-6,6v121.6   c0,14.3,11.6,25.9,26,26c7.7,0,13.9,6.3,14,14v86.4c-13.7,3.3-22.2,17.1-18.9,30.9c1.1,4.6,3.5,8.8,6.8,12.1c10,10,26.2,10,36.2,0   c10-10,10-26.2,0-36.2C343.8,432.2,339.7,429.9,335.1,428.8z M328.7,467.3c-7.5-0.2-13.4-6.4-13.2-13.9c0.1-3.5,1.5-6.8,4-9.2h0   c2.5-2.5,5.8-3.9,9.3-4c0.1,0,0.2,0,0.3,0c0.1,0,0.2,0,0.3,0c7.5,0.2,13.4,6.4,13.2,13.9C342.4,461.5,336.2,467.5,328.7,467.3z"/>
				<path d="M218.9,328.4c14.3,0,25.9-11.6,26-26V180.8c0-3.3-2.7-6-6-6c-3.3,0-6,2.7-6,6v121.6c0,7.7-6.3,13.9-14,14   c-14.3,0-25.9,11.6-26,26v86.4c-13.7,3.3-22.2,17.1-18.9,30.9s17.1,22.2,30.9,18.9s22.2-17.1,18.9-30.9   c-2.3-9.3-9.5-16.6-18.9-18.9v-86.4C204.9,334.6,211.2,328.4,218.9,328.4z M208.5,444.1L208.5,444.1c5.3,5.3,5.4,13.9,0,19.3   c-5.3,5.3-13.9,5.4-19.3,0c-5.3-5.3-5.4-13.9,0-19.3c2.5-2.5,5.8-3.9,9.3-4c0.1,0,0.2,0,0.3,0c0.1,0,0.2,0,0.3,0   C202.8,440.2,206.1,441.6,208.5,444.1z"/>
			</g>
		</g>
	</g>
</svg>
	